<svg width="1280" height="360" viewBox="0 0 1280 360" fill="none" xmlns="http://www.w3.org/2000/svg">
  <defs>
    <linearGradient id="bg" x1="0" y1="0" x2="1280" y2="360" gradientUnits="userSpaceOnUse">
      <stop stop-color="#102542"/>
      <stop offset="0.5" stop-color="#1C3D5A"/>
      <stop offset="1" stop-color="#D1495B"/>
    </linearGradient>
    <linearGradient id="wave" x1="0" y1="250" x2="1280" y2="330" gradientUnits="userSpaceOnUse">
      <stop stop-color="#F1E9DE" stop-opacity="0.15"/>
      <stop offset="1" stop-color="#F5D547" stop-opacity="0.4"/>
    </linearGradient>
  </defs>
  <rect width="1280" height="360" rx="28" fill="url(#bg)"/>
  <path d="M0 270C96 240 192 230 288 238C384 246 480 274 576 278C672 282 768 262 864 252C960 242 1056 242 1152 254C1200 260 1243 268 1280 276V360H0V270Z" fill="url(#wave)"/>
  <g opacity="0.9">
    <rect x="72" y="72" width="124" height="32" rx="16" fill="#F5D547"/>
    <text x="134" y="93" text-anchor="middle" fill="#102542" font-family="Segoe UI, Arial, sans-serif" font-size="16" font-weight="700">KAGGLE ML</text>
  </g>
  <text x="72" y="155" fill="white" font-family="Georgia, 'Times New Roman', serif" font-size="54" font-weight="700">Titanic Survival Prediction</text>
  <text x="72" y="198" fill="#F1E9DE" font-family="Segoe UI, Arial, sans-serif" font-size="24">Feature engineering, ensemble models, and an interactive Streamlit demo</text>
  <g>
    <rect x="72" y="232" width="168" height="42" rx="21" fill="#F1E9DE" fill-opacity="0.18" stroke="#F1E9DE" stroke-opacity="0.35"/>
    <text x="156" y="259" text-anchor="middle" fill="white" font-family="Segoe UI, Arial, sans-serif" font-size="18">Notebook + App</text>
    <rect x="256" y="232" width="182" height="42" rx="21" fill="#F5D547" fill-opacity="0.9"/>
    <text x="347" y="259" text-anchor="middle" fill="#102542" font-family="Segoe UI, Arial, sans-serif" font-size="18" font-weight="700">GitHub Ready</text>
  </g>
  <g transform="translate(918 60)">
    <rect width="284" height="182" rx="22" fill="#FBF7F2"/>
    <rect x="18" y="18" width="248" height="22" rx="11" fill="#D1495B" fill-opacity="0.18"/>
    <rect x="18" y="54" width="102" height="96" rx="18" fill="#F1E9DE"/>
    <rect x="132" y="54" width="134" height="18" rx="9" fill="#102542" fill-opacity="0.12"/>
    <rect x="132" y="84" width="116" height="18" rx="9" fill="#102542" fill-opacity="0.12"/>
    <rect x="132" y="114" width="92" height="18" rx="9" fill="#102542" fill-opacity="0.12"/>
    <rect x="132" y="148" width="76" height="12" rx="6" fill="#6FB98F"/>
    <path d="M42 131C57 104 81 81 103 73C103 88 109 112 123 131H42Z" fill="#D1495B"/>
    <path d="M54 126H118C111 119 108 104 107 89C91 98 72 112 54 126Z" fill="#102542"/>
  </g>
</svg>
