<svg width="1280" height="760" viewBox="0 0 1280 760" fill="none" xmlns="http://www.w3.org/2000/svg">
  <rect width="1280" height="760" rx="28" fill="#F6F1E8"/>
  <rect x="32" y="32" width="1216" height="696" rx="24" fill="#FBF7F2" stroke="#E3D8C8"/>
  <rect x="64" y="64" width="272" height="632" rx="22" fill="#1F2933"/>
  <text x="96" y="110" fill="#FBF7F2" font-family="Segoe UI, Arial, sans-serif" font-size="28" font-weight="700">Passenger Profile</text>
  <rect x="96" y="140" width="208" height="42" rx="12" fill="#D1495B"/>
  <text x="200" y="167" text-anchor="middle" fill="white" font-family="Segoe UI, Arial, sans-serif" font-size="18">Passenger Class</text>
  <rect x="96" y="202" width="208" height="18" rx="9" fill="#52606D"/>
  <rect x="96" y="246" width="208" height="42" rx="12" fill="#F5D547"/>
  <text x="200" y="273" text-anchor="middle" fill="#1F2933" font-family="Segoe UI, Arial, sans-serif" font-size="18" font-weight="700">Age</text>
  <rect x="96" y="308" width="208" height="18" rx="9" fill="#52606D"/>
  <rect x="96" y="352" width="208" height="42" rx="12" fill="#D1495B"/>
  <text x="200" y="379" text-anchor="middle" fill="white" font-family="Segoe UI, Arial, sans-serif" font-size="18">Fare</text>
  <rect x="96" y="414" width="208" height="18" rx="9" fill="#52606D"/>
  <rect x="96" y="458" width="208" height="42" rx="12" fill="#F5D547"/>
  <text x="200" y="485" text-anchor="middle" fill="#1F2933" font-family="Segoe UI, Arial, sans-serif" font-size="18" font-weight="700">Embarked</text>
  <rect x="96" y="520" width="208" height="18" rx="9" fill="#52606D"/>
  <rect x="96" y="570" width="208" height="72" rx="18" fill="#FBF7F2" fill-opacity="0.09" stroke="#E3D8C8" stroke-opacity="0.18"/>
  <text x="116" y="604" fill="#F1E9DE" font-family="Segoe UI, Arial, sans-serif" font-size="18">Interactive Streamlit controls</text>

  <text x="380" y="112" fill="#1F2933" font-family="Georgia, 'Times New Roman', serif" font-size="42" font-weight="700">Titanic Survival Predictor</text>
  <text x="380" y="148" fill="#52606D" font-family="Segoe UI, Arial, sans-serif" font-size="22">Fast interactive demo for GitHub visitors and portfolio review</text>

  <rect x="380" y="186" width="266" height="210" rx="24" fill="#FFFDF9" stroke="#E3D8C8"/>
  <text x="412" y="226" fill="#1F2933" font-family="Segoe UI, Arial, sans-serif" font-size="24" font-weight="700">Prediction</text>
  <circle cx="513" cy="308" r="72" fill="#F1E9DE"/>
  <circle cx="513" cy="308" r="56" fill="none" stroke="#D1495B" stroke-width="22" stroke-dasharray="255 120"/>
  <text x="513" y="318" text-anchor="middle" fill="#1F2933" font-family="Segoe UI, Arial, sans-serif" font-size="32" font-weight="700">68%</text>
  <rect x="412" y="344" width="202" height="28" rx="14" fill="#6FB98F"/>
  <text x="513" y="363" text-anchor="middle" fill="white" font-family="Segoe UI, Arial, sans-serif" font-size="16" font-weight="700">Predicted: Survived</text>

  <rect x="674" y="186" width="520" height="210" rx="24" fill="#FFFDF9" stroke="#E3D8C8"/>
  <text x="706" y="226" fill="#1F2933" font-family="Segoe UI, Arial, sans-serif" font-size="24" font-weight="700">Passenger Summary</text>
  <rect x="706" y="252" width="456" height="32" rx="10" fill="#F1E9DE"/>
  <rect x="706" y="300" width="456" height="32" rx="10" fill="#F1E9DE"/>
  <rect x="706" y="348" width="312" height="18" rx="9" fill="#D1495B" fill-opacity="0.2"/>
  <rect x="1030" y="348" width="132" height="18" rx="9" fill="#6FB98F" fill-opacity="0.45"/>

  <rect x="380" y="428" width="396" height="236" rx="24" fill="#FFFDF9" stroke="#E3D8C8"/>
  <text x="412" y="468" fill="#1F2933" font-family="Segoe UI, Arial, sans-serif" font-size="24" font-weight="700">Historical Survival by Sex</text>
  <rect x="448" y="558" width="92" height="62" rx="18" fill="#D1495B"/>
  <rect x="590" y="500" width="92" height="120" rx="18" fill="#6FB98F"/>
  <text x="494" y="648" text-anchor="middle" fill="#52606D" font-family="Segoe UI, Arial, sans-serif" font-size="18">Male</text>
  <text x="636" y="648" text-anchor="middle" fill="#52606D" font-family="Segoe UI, Arial, sans-serif" font-size="18">Female</text>

  <rect x="798" y="428" width="396" height="236" rx="24" fill="#FFFDF9" stroke="#E3D8C8"/>
  <text x="830" y="468" fill="#1F2933" font-family="Segoe UI, Arial, sans-serif" font-size="24" font-weight="700">Historical Survival by Class</text>
  <rect x="866" y="538" width="74" height="82" rx="18" fill="#D1495B"/>
  <rect x="960" y="498" width="74" height="122" rx="18" fill="#EDAe49"/>
  <rect x="1054" y="472" width="74" height="148" rx="18" fill="#00798C"/>
  <text x="903" y="648" text-anchor="middle" fill="#52606D" font-family="Segoe UI, Arial, sans-serif" font-size="18">3rd</text>
  <text x="997" y="648" text-anchor="middle" fill="#52606D" font-family="Segoe UI, Arial, sans-serif" font-size="18">2nd</text>
  <text x="1091" y="648" text-anchor="middle" fill="#52606D" font-family="Segoe UI, Arial, sans-serif" font-size="18">1st</text>
</svg>
